<mxfile host="65bd71144e">
    <diagram id="cD52tqRjU22jmfu8s6Lm" name="Page-1">
        <mxGraphModel dx="2015" dy="1718" grid="1" gridSize="10" guides="1" tooltips="1" connect="1" arrows="1" fold="1" page="1" pageScale="1" pageWidth="850" pageHeight="1100" math="0" shadow="0">
            <root>
                <mxCell id="0"/>
                <mxCell id="1" parent="0"/>
                <mxCell id="196" value="" style="rounded=0;whiteSpace=wrap;html=1;fillColor=none;dashed=1;" vertex="1" parent="1">
                    <mxGeometry x="-420" y="100" width="200" height="120" as="geometry"/>
                </mxCell>
                <mxCell id="177" style="edgeStyle=none;curved=1;html=1;exitX=0.5;exitY=0;exitDx=0;exitDy=0;entryX=0.5;entryY=0;entryDx=0;entryDy=0;" parent="1" source="171" target="174" edge="1">
                    <mxGeometry relative="1" as="geometry">
                        <Array as="points">
                            <mxPoint x="160" y="-120"/>
                        </Array>
                    </mxGeometry>
                </mxCell>
                <mxCell id="178" value="add/remove" style="edgeLabel;html=1;align=center;verticalAlign=middle;resizable=0;points=[];fontFamily=Lucida Console;fontSize=12;labelBackgroundColor=default;" parent="177" vertex="1" connectable="0">
                    <mxGeometry x="-0.1538" y="33" relative="1" as="geometry">
                        <mxPoint x="-10" y="-22" as="offset"/>
                    </mxGeometry>
                </mxCell>
                <mxCell id="180" style="edgeStyle=none;curved=1;html=1;exitX=0;exitY=0.25;exitDx=0;exitDy=0;entryX=1;entryY=0.25;entryDx=0;entryDy=0;fontFamily=Lucida Console;fontSize=12;" parent="1" source="171" target="174" edge="1">
                    <mxGeometry relative="1" as="geometry"/>
                </mxCell>
                <mxCell id="183" value="set" style="edgeLabel;html=1;align=center;verticalAlign=middle;resizable=0;points=[];fontSize=12;fontFamily=Lucida Console;" parent="180" vertex="1" connectable="0">
                    <mxGeometry x="0.275" relative="1" as="geometry">
                        <mxPoint x="22" y="-10" as="offset"/>
                    </mxGeometry>
                </mxCell>
                <mxCell id="171" value="DataListener" style="rounded=0;whiteSpace=wrap;html=1;strokeColor=#6c8ebf;fillColor=#dae8fc;perimeterSpacing=0;fontFamily=Lucida Console;" parent="1" vertex="1">
                    <mxGeometry x="240" y="-40" width="160" height="80" as="geometry"/>
                </mxCell>
                <mxCell id="176" style="edgeStyle=none;curved=1;html=1;exitX=0.5;exitY=1;exitDx=0;exitDy=0;entryX=0.5;entryY=1;entryDx=0;entryDy=0;fontFamily=Lucida Console;fontSize=12;" parent="1" source="174" target="171" edge="1">
                    <mxGeometry relative="1" as="geometry">
                        <Array as="points">
                            <mxPoint x="160" y="120"/>
                        </Array>
                    </mxGeometry>
                </mxCell>
                <mxCell id="179" value="update" style="edgeLabel;html=1;align=center;verticalAlign=middle;resizable=0;points=[];fontSize=12;fontFamily=Lucida Console;" parent="176" vertex="1" connectable="0">
                    <mxGeometry x="-0.1519" y="31" relative="1" as="geometry">
                        <mxPoint x="10" y="20" as="offset"/>
                    </mxGeometry>
                </mxCell>
                <mxCell id="181" style="edgeStyle=none;curved=1;html=1;exitX=1;exitY=0.75;exitDx=0;exitDy=0;entryX=0;entryY=0.75;entryDx=0;entryDy=0;fontFamily=Lucida Console;fontSize=12;" parent="1" source="174" target="171" edge="1">
                    <mxGeometry relative="1" as="geometry"/>
                </mxCell>
                <mxCell id="182" value="get" style="edgeLabel;html=1;align=center;verticalAlign=middle;resizable=0;points=[];fontSize=12;fontFamily=Lucida Console;" parent="181" vertex="1" connectable="0">
                    <mxGeometry x="0.4" relative="1" as="geometry">
                        <mxPoint x="-32" y="10" as="offset"/>
                    </mxGeometry>
                </mxCell>
                <mxCell id="189" style="edgeStyle=none;curved=1;html=1;exitX=0;exitY=0.75;exitDx=0;exitDy=0;entryX=1;entryY=0.75;entryDx=0;entryDy=0;fontFamily=Lucida Console;fontSize=12;" parent="1" source="174" target="188" edge="1">
                    <mxGeometry relative="1" as="geometry"/>
                </mxCell>
                <mxCell id="192" value="get" style="edgeLabel;html=1;align=center;verticalAlign=middle;resizable=0;points=[];fontSize=12;fontFamily=Lucida Console;" parent="189" vertex="1" connectable="0">
                    <mxGeometry x="-0.45" y="4" relative="1" as="geometry">
                        <mxPoint x="-36" y="6" as="offset"/>
                    </mxGeometry>
                </mxCell>
                <mxCell id="194" style="edgeStyle=none;html=1;exitX=0.5;exitY=1;exitDx=0;exitDy=0;entryX=1;entryY=0.5;entryDx=0;entryDy=0;dashed=1;rounded=0;" edge="1" parent="1" source="174" target="193">
                    <mxGeometry relative="1" as="geometry">
                        <Array as="points">
                            <mxPoint y="160"/>
                        </Array>
                    </mxGeometry>
                </mxCell>
                <mxCell id="174" value="DataSource" style="rounded=0;whiteSpace=wrap;html=1;strokeColor=#82b366;fillColor=#d5e8d4;perimeterSpacing=0;fontFamily=Lucida Console;" parent="1" vertex="1">
                    <mxGeometry x="-80" y="-40" width="160" height="80" as="geometry"/>
                </mxCell>
                <mxCell id="190" style="edgeStyle=none;curved=1;html=1;exitX=1;exitY=0.25;exitDx=0;exitDy=0;entryX=0;entryY=0.25;entryDx=0;entryDy=0;fontFamily=Lucida Console;fontSize=12;" parent="1" source="188" target="174" edge="1">
                    <mxGeometry relative="1" as="geometry"/>
                </mxCell>
                <mxCell id="191" value="set" style="edgeLabel;html=1;align=center;verticalAlign=middle;resizable=0;points=[];fontSize=12;fontFamily=Lucida Console;" parent="190" vertex="1" connectable="0">
                    <mxGeometry x="-0.3" y="2" relative="1" as="geometry">
                        <mxPoint x="24" y="-8" as="offset"/>
                    </mxGeometry>
                </mxCell>
                <mxCell id="197" style="edgeStyle=none;rounded=0;html=1;exitX=0.5;exitY=1;exitDx=0;exitDy=0;entryX=0.5;entryY=0;entryDx=0;entryDy=0;dashed=1;" edge="1" parent="1" source="188" target="193">
                    <mxGeometry relative="1" as="geometry"/>
                </mxCell>
                <mxCell id="188" value="Application" style="rounded=0;whiteSpace=wrap;html=1;strokeColor=#b85450;fillColor=#f8cecc;perimeterSpacing=0;fontFamily=Lucida Console;" parent="1" vertex="1">
                    <mxGeometry x="-400" y="-40" width="160" height="80" as="geometry"/>
                </mxCell>
                <mxCell id="193" value="&amp;lt;data&amp;gt;" style="rounded=0;whiteSpace=wrap;html=1;perimeterSpacing=0;fontFamily=Lucida Console;fillColor=#f5f5f5;fontColor=#333333;strokeColor=#666666;" vertex="1" parent="1">
                    <mxGeometry x="-400" y="120" width="160" height="80" as="geometry"/>
                </mxCell>
            </root>
        </mxGraphModel>
    </diagram>
</mxfile>